<?xml version="1.0" encoding="UTF-8"?><svg id="Layer_2" xmlns="http://www.w3.org/2000/svg" viewBox="0 0 640.06 400"><defs><style>.cls-1{stroke-width:25px;}.cls-1,.cls-2{fill:none;stroke:#e8c07d;stroke-miterlimit:10;}.cls-3,.cls-4,.cls-5{fill:#cc704b;}.cls-4,.cls-6{opacity:.7;}.cls-7,.cls-6,.cls-8{fill:#9fc088;}.cls-7,.cls-5{opacity:.8;}.cls-2{stroke-linecap:round;stroke-width:24.9px;}</style></defs><g id="Layer_1-2"><g><g><g><path class="cls-4" d="m640.06,0h-320c.28,19.74,3.39,134.49,78.77,217.1,64.22,70.39,156.69,90.91,241.23,54.78"/><path class="cls-5" d="m640.06,0h-287.18c.25,17.3,3.04,117.86,70.69,190.26,57.64,61.69,140.62,79.67,216.49,48.01"/><path class="cls-3" d="m640.06,0h-248.62c.21,14.18,2.63,96.65,61.2,156.02,49.9,50.58,121.74,65.33,187.42,39.37"/></g><g><path class="cls-6" d="m.06,0h452c-.39,27.28-4.79,185.89-111.26,300.08C250.09,397.37,119.47,425.74.06,375.8"/><path class="cls-7" d="m.06,0h405.64c-.35,23.91-4.3,162.92-99.85,262.99C224.44,348.26,107.23,373.12.06,329.35"/><path class="cls-8" d="m.06,0h351.17c-.3,19.61-3.72,133.59-86.44,215.65C194.31,285.57,92.84,305.96.06,270.07"/></g></g><g><line class="cls-1" x1=".06" y1="93" x2="98.98" y2="92.49"/><line class="cls-2" x1="56.68" y1="92.49" x2="470.06" y2="92.49"/></g><g><line class="cls-1" x1=".48" y1="144.54" x2="67.73" y2="144.27"/><line class="cls-2" x1="38.98" y1="144.27" x2="320.06" y2="144.27"/></g></g></g></svg>