<?xml version="1.0" encoding="UTF-8"?><svg id="Layer_2" xmlns="http://www.w3.org/2000/svg" viewBox="0 0 573.5 264"><defs><style>.cls-1{fill:#fff;}.cls-2{stroke:#e8c07d;}.cls-2,.cls-3,.cls-4{stroke-miterlimit:10;}.cls-2,.cls-4{fill:none;stroke-linecap:round;stroke-width:25px;}.cls-3{fill:#614124;stroke:#614124;stroke-width:6px;}.cls-4{stroke:#cc704b;}.cls-5{fill:#9fc088;}</style></defs><g id="Layer_1-2"><g><g><ellipse class="cls-5" cx="442.5" cy="132" rx="131" ry="132"/><g><ellipse class="cls-3" cx="475.25" cy="91.36" rx="12.76" ry="12.85"/><path class="cls-3" d="m421.58,136.53c2.34-1.88,8.58-6.35,17.13-6.21,2.89.05,7.87.13,12.13,3.83,4.09,3.54,5.1,8.29,5.37,10.22.67,4.77-.92,8.44-2.36,11.65-1.87,4.15-5.92,8.19-13.82,16.25-4.16,4.24-7.54,7.5-12.5,8.69-1.46.35-4.53,1.1-6.18-.53-1.37-1.35-1.1-3.64-1.02-4.27.32-2.77,2.06-4.61,4.02-6.63,3.54-3.65,7.07-7.3,10.61-10.95,3.48-3.58,4.71-5.08,4.76-7.26,0-.27,0-3.27-2.34-5.08-1.97-1.52-4.27-1.17-4.75-1.1-1.43.21-2.37.84-5.1,3.05-4.06,3.29-5.96,5.07-5.96,5.07-3.21,3-5.56,5.31-6.02,5.76-3.49,3.42-3.84,3.27-11.92,10.14-6.66,5.66-7.79,6.93-12.67,10.77-2.78,2.19-5.11,3.9-6.65,5.01-.23.06-4.31,1.14-6.81-1.28-2.5-2.42-2.55-7.51.93-11.08,14.39-12.02,28.78-24.03,43.17-36.05Z"/><path class="cls-1" d="m401.13,128.53c-.6-.35-3.91-2.33-4.13-5.56-.05-.73-.03-2.64,3.44-6.25,2.56-2.66,5.8-5.01,11.72-7.64,4.34-1.93,7.4-3.29,11.93-4.17,8.69-1.68,15.68-.15,19.77.69,2.15.44,5.27,1.24,8.79,2.78,3.29,1.44,5.72,3.06,9.52,5.56,5.23,3.44,4.79,3.66,7.23,4.86,1.89.93,5.82,2.82,11.03,2.78,3.09-.03,5.39-.73,7.58-1.39,5.45-1.65,5.83-3.16,10.34-4.17,2.73-.61,6.5-1.45,8.96.69,1.25,1.09,2.2,2.97,2.07,4.86-.33,4.82-7.51,7.87-13.53,10.42-2.69,1.14-7.29,2.82-13.18,3.47-2.58.29-5.14.55-8.45,0-2.26-.38-4.74-1.12-9.23-3.45-5.99-3.11-6.79-4.5-12.14-7.67-4.66-2.76-8.54-5.05-14.11-6.25-3.14-.68-8.31-1.79-14.16,0-4.7,1.44-9.83,4.76-11.03,5.56-1.76,1.16-3.42,2.42-6.21,3.47-2.49.94-4.7,1.26-6.21,1.39Z"/></g></g><g><line class="cls-2" x1="147" y1="104.5" x2="247" y2="104.5"/><line class="cls-2" x1="70" y1="168.5" x2="270" y2="168.75"/><line class="cls-4" x1="12.5" y1="232.5" x2="312.5" y2="232.39"/></g></g></g></svg>